# xmcd CD database file
#
# Track frame offsets:
#	150
#	13263
#	25424
#	37725
#	49282
#	60006
#	71469
#	83708
#	96817
#	109370
#	120259
#	131006
#	144625
#	157707
#	171054
#	182612
#	194293
#	206247
#	218492
#	228240
#
# Disc length: 3200 seconds
#
# Revision: 0
# Processed by: cddbd v1.5.2PL0 Copyright (c) Steve Scherf et al.
# Submitted via: CDex 1.51
#
DISCID=050c7e14
DTITLE=Hank Williams - Hank Williams
DYEAR=2004
DGENRE=Country
TTITLE0=01-Hey Good Lookin
TTITLE1=02-Your Cheatin' Heart
TTITLE2=03-Cold Cold Heart
TTITLE3=04-Dear John
TTITLE4=05-I can't help it
TTITLE5=06-My bucket's got a hole in it
TTITLE6=07-Lovesick blues
TTITLE7=08-Jambalaya
TTITLE8=09-I'm so lonesome I could cry
TTITLE9=10-Lonesome whistle
TTITLE10=11-Moanin the blues
TTITLE11=12-Ramblin man
TTITLE12=13-Wedding bells
TTITLE13=14-You're gomma change
TTITLE14=15-My son calls another man daddy
TTITLE15=16-A Mansion on the hill
TTITLE16=17-Long gone lonesome blues
TTITLE17=18-Howlin at the moon
TTITLE18=19-Honky tonk blues
TTITLE19=20Why should we try anymore
EXTD=YEAR: 2004
EXTT0=
EXTT1=
EXTT2=
EXTT3=
EXTT4=
EXTT5=
EXTT6=
EXTT7=
EXTT8=
EXTT9=
EXTT10=
EXTT11=
EXTT12=
EXTT13=
EXTT14=
EXTT15=
EXTT16=
EXTT17=
EXTT18=
EXTT19=
PLAYORDER=
